<?xml version="1.0" encoding="UTF-8"?>
<svg width="1424px" height="615px" viewBox="0 0 1424 615" version="1.1" xmlns="http://www.w3.org/2000/svg" xmlns:xlink="http://www.w3.org/1999/xlink">
    <!-- Generator: Sketch 45.1 (43504) - http://www.bohemiancoding.com/sketch -->
    <title>Group 21</title>
    <desc>Created with Sketch.</desc>
    <defs></defs>
    <g id="Space" stroke="none" stroke-width="1" fill="none" fill-rule="evenodd">
        <g id="Space-V4" transform="translate(-8.000000, -2006.000000)">
            <g id="Group-21" transform="translate(8.000000, 2006.000000)">
                <g id="layout" opacity="0.5" fill="#CDE5EF">
                    <g id="1440x1024---24-col-grid---0,5rem-margin---1rem-gutter">
                        <g id="columns">
                            <rect id="Rectangle" x="0" y="0" width="44" height="614.843502"></rect>
                            <rect id="Rectangle-Copy-21" x="60" y="0" width="44" height="614.843502"></rect>
                            <rect id="Rectangle-Copy-22" x="120" y="0" width="44" height="614.843502"></rect>
                            <rect id="Rectangle-Copy-23" x="180" y="0" width="44" height="614.843502"></rect>
                            <rect id="Rectangle-Copy-24" x="240" y="0" width="44" height="614.843502"></rect>
                            <rect id="Rectangle-Copy-25" x="300" y="0" width="44" height="614.843502"></rect>
                            <rect id="Rectangle-Copy-26" x="360" y="0" width="44" height="614.843502"></rect>
                            <rect id="Rectangle-Copy-27" x="420" y="0" width="44" height="614.843502"></rect>
                            <rect id="Rectangle-Copy-28" x="480" y="0" width="44" height="614.843502"></rect>
                            <rect id="Rectangle-Copy-29" x="540" y="0" width="44" height="614.843502"></rect>
                            <rect id="Rectangle-Copy-30" x="600" y="0" width="44" height="614.843502"></rect>
                            <rect id="Rectangle-Copy-31" x="660" y="0" width="44" height="614.843502"></rect>
                            <rect id="Rectangle-Copy-32" x="720" y="0" width="44" height="614.843502"></rect>
                            <rect id="Rectangle-Copy-33" x="780" y="0" width="44" height="614.843502"></rect>
                            <rect id="Rectangle-Copy-34" x="840" y="0" width="44" height="614.843502"></rect>
                            <rect id="Rectangle-Copy-35" x="900" y="0" width="44" height="614.843502"></rect>
                            <rect id="Rectangle-Copy-36" x="960" y="0" width="44" height="614.843502"></rect>
                            <rect id="Rectangle-Copy-37" x="1020" y="0" width="44" height="614.843502"></rect>
                            <rect id="Rectangle-Copy-38" x="1080" y="0" width="44" height="614.843502"></rect>
                            <rect id="Rectangle-Copy-39" x="1140" y="0" width="44" height="614.843502"></rect>
                            <rect id="Rectangle-Copy-40" x="1200" y="0" width="44" height="614.843502"></rect>
                            <rect id="Rectangle-Copy-41" x="1260" y="0" width="44" height="614.843502"></rect>
                            <rect id="Rectangle-Copy-42" x="1320" y="0" width="44" height="614.843502"></rect>
                            <rect id="Rectangle-Copy-43" x="1380" y="0" width="44" height="614.843502"></rect>
                        </g>
                    </g>
                </g>
                <g id="Group-2" fill="#7A7980">
                    <rect id="Box-Copy-84" x="0" y="0" width="1422.00281" height="40"></rect>
                    <rect id="Box-Copy-85" x="0" y="72" width="703.012623" height="40"></rect>
                    <rect id="Box-Copy-86" x="718.990182" y="72" width="703.012623" height="40"></rect>
                    <rect id="Box-Copy-89" x="0" y="287" width="343.517532" height="40"></rect>
                    <rect id="Box-Copy-90" x="0" y="359" width="343.517532" height="40"></rect>
                    <rect id="Box-Copy-91" x="359.495091" y="359" width="343.517532" height="40"></rect>
                    <rect id="Box-Copy-115" x="718.990182" y="359" width="343.517532" height="40"></rect>
                    <rect id="Box-Copy-117" x="1079.48387" y="359" width="343.517532" height="40"></rect>
                    <rect id="Box-Copy-118" x="838.821879" y="287" width="462.350631" height="40"></rect>
                    <rect id="Box-Copy-120" x="479.326788" y="216" width="462.350631" height="40"></rect>
                    <rect id="Box-Copy-122" x="0" y="216" width="464" height="40"></rect>
                    <rect id="Box-Copy-127" x="0" y="144" width="465.346424" height="40"></rect>
                    <rect id="Box-Copy-121" x="359.495091" y="287" width="462.350631" height="40"></rect>
                    <rect id="Box-Copy-92" x="0" y="503" width="223.685835" height="40"></rect>
                    <rect id="Box-Copy-111" x="0" y="431" width="223.685835" height="40"></rect>
                    <rect id="Box-Copy-93" x="239.663394" y="503" width="223.685835" height="40"></rect>
                    <rect id="Box-Copy-106" x="479.326788" y="503" width="223.685835" height="40"></rect>
                    <rect id="Box-Copy-108" x="718.990182" y="503" width="223.685835" height="40"></rect>
                    <rect id="Box-Copy-109" x="958.653576" y="503" width="223.685835" height="40"></rect>
                    <rect id="Box-Copy-110" x="1199.31557" y="503" width="223.685835" height="40"></rect>
                    <rect id="Box-Copy-125" x="1199.31557" y="144" width="223.685835" height="40"></rect>
                    <rect id="Box-Copy-119" x="0" y="575" width="104" height="40"></rect>
                    <rect id="Box-Copy-126" x="1319.14727" y="287" width="104.852735" height="40"></rect>
                    <rect id="Box-Copy-107" x="119.831697" y="575" width="223.685835" height="40"></rect>
                    <rect id="Box-Copy-112" x="239" y="431" width="465" height="40"></rect>
                    <rect id="Box-Copy-113" x="719.98878" y="431" width="703.012623" height="40"></rect>
                    <rect id="Box-Copy-114" x="719.98878" y="575" width="703.012623" height="40"></rect>
                    <rect id="Box-Copy-116" x="359.495091" y="575" width="343.517532" height="40"></rect>
                    <rect id="Box-Copy-123" x="958.653576" y="216" width="464.347826" height="40"></rect>
                    <rect id="Box-Copy-124" x="479.326788" y="144" width="703.012623" height="40"></rect>
                </g>
            </g>
        </g>
    </g>
</svg>