<?xml version="1.0" encoding="UTF-8"?>
<svg width="62px" height="59px" viewBox="0 0 62 59" version="1.1" xmlns="http://www.w3.org/2000/svg" xmlns:xlink="http://www.w3.org/1999/xlink">
    <!-- Generator: Sketch 45.1 (43504) - http://www.bohemiancoding.com/sketch -->
    <title>Shape</title>
    <desc>Created with Sketch.</desc>
    <defs></defs>
    <g id="Elements" stroke="none" stroke-width="1" fill="none" fill-rule="evenodd">
        <g id="Colors-V7" transform="translate(-982.000000, -905.000000)" fill-rule="nonzero" fill="#1EB234">
            <g id="Group-12" transform="translate(92.000000, 667.000000)">
                <g id="Group-51" transform="translate(0.000000, 237.000000)">
                    <g id="Group-11" transform="translate(839.000000, 1.000000)">
                        <g id="Group-37">
                            <g id="Group-22">
                                <g id="Group-14">
                                    <g id="checkmark-circle" transform="translate(51.000000, 0.000000)">
                                        <path d="M29.1182353,40.8575 L29.1182353,40.8575 C28.705716,40.8496213 28.3141655,40.6742067 28.0336765,40.3716176 L15.2098529,26.5933824 C14.6903898,25.9739493 14.7473566,25.0561208 15.3394302,24.5056773 C15.9315039,23.9552338 16.8510444,23.9652158 17.4310294,24.5283824 L29.1529412,37.1439706 L59.2255882,7.07132353 C59.8197817,6.47952608 60.7812172,6.48146839 61.3730147,7.07566179 C61.9648121,7.6698552 61.9628699,8.63129076 61.3686765,9.22308824 L30.1854412,40.4063235 C29.9033273,40.6918678 29.519623,40.8540842 29.1182353,40.8575 Z M58.0629412,29.5 C58.0636227,28.1561144 57.9708499,26.813808 57.7852941,25.4827941 C57.667893,24.6514025 56.8987445,24.0725989 56.0673529,24.19 C55.2359613,24.3074011 54.6571577,25.0765496 54.7745588,25.9079412 C56.4879644,38.1235839 49.2717482,49.831166 37.5889864,53.7897973 C25.9062246,57.7484286 13.059459,52.8390633 6.99414054,42.0980392 C0.928822096,31.3570152 3.35952553,17.8206591 12.7829125,9.86091904 C22.2062995,1.90117894 35.9585197,1.76815414 45.5341176,9.54411765 C46.1858137,10.0736207 47.1433646,9.97456365 47.6728676,9.32286765 C48.2023707,8.67117164 48.1033137,7.71362065 47.4516176,7.18411765 C37.0371207,-1.27340309 22.1538969,-1.39081075 11.6072685,6.90135624 C1.06064014,15.1935232 -2.33715979,29.6841785 3.42410011,41.8002541 C9.18536002,53.9163297 22.5694537,60.4271033 35.6579852,57.480623 C48.7465168,54.5341428 58.0494608,42.9160807 58.0629412,29.5 L58.0629412,29.5 Z" id="Shape"></path>
                                    </g>
                                </g>
                            </g>
                        </g>
                    </g>
                </g>
            </g>
        </g>
    </g>
</svg>