<?xml version="1.0" encoding="UTF-8"?>
<svg width="797px" height="430px" viewBox="0 0 797 430" version="1.1" xmlns="http://www.w3.org/2000/svg" xmlns:xlink="http://www.w3.org/1999/xlink">
    <!-- Generator: Sketch 45.1 (43504) - http://www.bohemiancoding.com/sketch -->
    <title>Group 12</title>
    <desc>Created with Sketch.</desc>
    <defs>
        <rect id="path-1" x="0" y="0" width="795.673877" height="429.337442"></rect>
    </defs>
    <g id="Page-2" stroke="none" stroke-width="1" fill="none" fill-rule="evenodd">
        <g id="Grid" transform="translate(-380.000000, -250.000000)">
            <g id="Group-12" transform="translate(380.000000, 250.000000)">
                <g id="Group">
                    <g id="Rectangle-6">
                        <use fill="#FAFBFC" fill-rule="evenodd" xlink:href="#path-1"></use>
                        <rect stroke="#979797" stroke-width="1" x="0.5" y="0.5" width="794.673877" height="428.337442"></rect>
                    </g>
                    <rect id="Rectangle-5" fill-opacity="0.256567029" fill="#00ABF2" x="0.796529823" y="0.662557781" width="33.1530782" height="429.337442"></rect>
                    <rect id="Rectangle-5" fill-opacity="0.256567029" fill="#00ABF2" x="33.949608" y="0.662557781" width="33.1530782" height="429.337442"></rect>
                    <rect id="Rectangle-5" fill-opacity="0.256567029" fill="#00ABF2" x="67.1026862" y="0.662557781" width="33.1530782" height="429.337442"></rect>
                    <rect id="Rectangle-5" fill-opacity="0.256567029" fill="#00ABF2" x="100.255764" y="0.662557781" width="33.1530782" height="429.337442"></rect>
                    <rect id="Rectangle-5" fill-opacity="0.256567029" fill="#00ABF2" x="133.408843" y="0.662557781" width="33.1530782" height="429.337442"></rect>
                    <rect id="Rectangle-5" fill-opacity="0.256567029" fill="#00ABF2" x="166.561921" y="0.662557781" width="33.1530782" height="429.337442"></rect>
                    <rect id="Rectangle-5" fill-opacity="0.256567029" fill="#00ABF2" x="199.714999" y="0.662557781" width="33.1530782" height="429.337442"></rect>
                    <rect id="Rectangle-5" fill-opacity="0.256567029" fill="#00ABF2" x="232.868077" y="0.662557781" width="33.1530782" height="429.337442"></rect>
                    <rect id="Rectangle-5" fill-opacity="0.256567029" fill="#00ABF2" x="266.021155" y="0.662557781" width="33.1530782" height="429.337442"></rect>
                    <rect id="Rectangle-5" fill-opacity="0.256567029" fill="#00ABF2" x="299.174234" y="0.662557781" width="33.1530782" height="429.337442"></rect>
                    <rect id="Rectangle-5" fill-opacity="0.256567029" fill="#00ABF2" x="332.327312" y="0.662557781" width="33.1530782" height="429.337442"></rect>
                    <rect id="Rectangle-5" fill-opacity="0.256567029" fill="#00ABF2" x="365.48039" y="0.662557781" width="33.1530782" height="429.337442"></rect>
                    <rect id="Rectangle-5" fill-opacity="0.256567029" fill="#00ABF2" x="398.633468" y="0.662557781" width="33.1530782" height="429.337442"></rect>
                    <rect id="Rectangle-5" fill-opacity="0.256567029" fill="#00ABF2" x="431.786546" y="0.662557781" width="33.1530782" height="429.337442"></rect>
                    <rect id="Rectangle-5" fill-opacity="0.256567029" fill="#00ABF2" x="464.939625" y="0.662557781" width="33.1530782" height="429.337442"></rect>
                    <rect id="Rectangle-5" fill-opacity="0.256567029" fill="#00ABF2" x="498.092703" y="0.662557781" width="33.1530782" height="429.337442"></rect>
                    <rect id="Rectangle-5" fill-opacity="0.256567029" fill="#00ABF2" x="531.245781" y="0.662557781" width="33.1530782" height="429.337442"></rect>
                    <rect id="Rectangle-5" fill-opacity="0.256567029" fill="#00ABF2" x="564.398859" y="0.662557781" width="33.1530782" height="429.337442"></rect>
                    <rect id="Rectangle-5" fill-opacity="0.256567029" fill="#00ABF2" x="597.551937" y="0.662557781" width="33.1530782" height="429.337442"></rect>
                    <rect id="Rectangle-5" fill-opacity="0.256567029" fill="#00ABF2" x="630.705016" y="0.662557781" width="33.1530782" height="429.337442"></rect>
                    <rect id="Rectangle-5" fill-opacity="0.256567029" fill="#00ABF2" x="663.858094" y="0.662557781" width="33.1530782" height="429.337442"></rect>
                    <rect id="Rectangle-5" fill-opacity="0.256567029" fill="#00ABF2" x="697.011172" y="0.662557781" width="33.1530782" height="429.337442"></rect>
                    <rect id="Rectangle-5" fill-opacity="0.256567029" fill="#00ABF2" x="730.16425" y="0.662557781" width="33.1530782" height="429.337442"></rect>
                    <rect id="Rectangle-5" fill-opacity="0.256567029" fill="#00ABF2" x="763.317328" y="0.662557781" width="33.1530782" height="429.337442"></rect>
                    <path d="M33.5,1.5 L34,427.542251" id="Line" stroke="#FAFBFC" stroke-linecap="square"></path>
                    <path d="M67.5,1.5 L68,427.542251" id="Line" stroke="#FAFBFC" stroke-linecap="square"></path>
                    <path d="M100.5,1.5 L101,427.542251" id="Line" stroke="#FAFBFC" stroke-linecap="square"></path>
                    <path d="M133.5,1.5 L134,427.542251" id="Line" stroke="#FAFBFC" stroke-linecap="square"></path>
                    <path d="M166.5,1.5 L167,427.542251" id="Line" stroke="#FAFBFC" stroke-linecap="square"></path>
                    <path d="M200.5,1.5 L201,427.542251" id="Line" stroke="#FAFBFC" stroke-linecap="square"></path>
                    <path d="M232.5,1.5 L233,427.542251" id="Line" stroke="#FAFBFC" stroke-linecap="square"></path>
                    <path d="M266.5,1.5 L267,427.542251" id="Line" stroke="#FAFBFC" stroke-linecap="square"></path>
                    <path d="M299.5,1.5 L300,427.542251" id="Line" stroke="#FAFBFC" stroke-linecap="square"></path>
                    <path d="M332.5,1.5 L333,427.542251" id="Line" stroke="#FAFBFC" stroke-linecap="square"></path>
                    <path d="M365.5,1.5 L366,427.542251" id="Line" stroke="#FAFBFC" stroke-linecap="square"></path>
                    <path d="M398.5,1.5 L399,427.542251" id="Line" stroke="#FAFBFC" stroke-linecap="square"></path>
                    <path d="M431.5,1.5 L432,427.542251" id="Line" stroke="#FAFBFC" stroke-linecap="square"></path>
                    <path d="M465.5,1.5 L466,427.542251" id="Line" stroke="#FAFBFC" stroke-linecap="square"></path>
                    <path d="M498.5,1.5 L499,427.542251" id="Line" stroke="#FAFBFC" stroke-linecap="square"></path>
                    <path d="M531.5,1.5 L532,427.542251" id="Line" stroke="#FAFBFC" stroke-linecap="square"></path>
                    <path d="M564.5,1.5 L565,427.542251" id="Line" stroke="#FAFBFC" stroke-linecap="square"></path>
                    <path d="M597.5,1.5 L598,427.542251" id="Line" stroke="#FAFBFC" stroke-linecap="square"></path>
                    <path d="M631.5,1.5 L632,427.542251" id="Line" stroke="#FAFBFC" stroke-linecap="square"></path>
                    <path d="M664.5,1.5 L665,427.542251" id="Line" stroke="#FAFBFC" stroke-linecap="square"></path>
                    <path d="M697.5,1.5 L698,427.542251" id="Line" stroke="#FAFBFC" stroke-linecap="square"></path>
                    <path d="M730.5,1.5 L731,427.542251" id="Line" stroke="#FAFBFC" stroke-linecap="square"></path>
                    <path d="M763.5,1.5 L764,427.542251" id="Line" stroke="#FAFBFC" stroke-linecap="square"></path>
                </g>
                <g id="Group-11" transform="translate(32.000000, 77.000000)">
                    <g id="Group-3">
                        <g id="Group-9" transform="translate(0.000000, 16.000000)" stroke="#F44F41" stroke-width="2" stroke-linecap="square">
                            <path d="M1.6875,6.5 L34.3125,6.5" id="Line"></path>
                            <path d="M1.125,0.40625 L1.125,12.59375" id="Line"></path>
                            <path d="M34.875,0.40625 L34.875,12.59375" id="Line"></path>
                        </g>
                        <text id="1/24" font-family="ArialMT, Arial" font-size="13" font-weight="normal" fill="#F44F41">
                            <tspan x="5.34912109" y="13">1/24</tspan>
                        </text>
                    </g>
                </g>
            </g>
        </g>
    </g>
</svg>