<?xml version="1.0" encoding="UTF-8"?>
<svg width="58px" height="58px" viewBox="0 0 58 58" version="1.1" xmlns="http://www.w3.org/2000/svg" xmlns:xlink="http://www.w3.org/1999/xlink">
    <!-- Generator: Sketch 45.1 (43504) - http://www.bohemiancoding.com/sketch -->
    <title>Shape</title>
    <desc>Created with Sketch.</desc>
    <defs></defs>
    <g id="Elements" stroke="none" stroke-width="1" fill="none" fill-rule="evenodd">
        <g id="Colors-V7" transform="translate(-565.000000, -906.000000)" fill-rule="nonzero" fill="#FCC500">
            <g id="Group-12" transform="translate(92.000000, 667.000000)">
                <g id="Group-51" transform="translate(0.000000, 237.000000)">
                    <g id="Group-13" transform="translate(420.000000, 2.000000)">
                        <g id="Group-35">
                            <g id="Group-17">
                                <path d="M82,3.75 C68.0548101,3.75 56.75,15.0548101 56.75,29 C56.75,42.9451899 68.0548101,54.25 82,54.25 C95.9451899,54.25 107.25,42.9451899 107.25,29 L107.25,29 C107.233469,15.0616632 95.9383368,3.76653096 82,3.75 Z M82,57.75 C66.1218134,57.75 53.25,44.8781866 53.25,29 C53.25,13.1218134 66.1218134,0.25 82,0.25 C97.8781866,0.25 110.75,13.1218134 110.75,29 C110.75,36.6249741 107.720991,43.9376491 102.32932,49.32932 C96.9376491,54.7209908 89.6249741,57.75 82,57.75 Z M83,39.95 C83.5999144,39.9381194 84.1026156,40.4011337 84.14,41 L84.14,43.09 C84.1454787,43.3939933 84.027132,43.6871508 83.8121414,43.9021414 C83.5971508,44.117132 83.3039933,44.2354787 83,44.23 L81,44.23 C80.7029439,44.235352 80.4159331,44.1224551 80.2021312,43.916155 C79.9883292,43.7098549 79.8652572,43.4270578 79.86,43.13 L79.86,41 C79.8973844,40.4011337 80.4000856,39.9381194 81,39.95 L83,39.95 Z M83,13.78 C83.2970561,13.774648 83.5840669,13.8875449 83.7978688,14.093845 C84.0116708,14.3001451 84.1347428,14.5829422 84.14,14.88 L84.14,36.28 C84.1236319,36.8946656 83.6147815,37.381198 83,37.37 L81,37.37 C80.7029439,37.375352 80.4159331,37.2624551 80.2021312,37.056155 C79.9883292,36.8498549 79.8652572,36.5670578 79.86,36.27 L79.86,14.87 C79.8652572,14.5729422 79.9883292,14.2901451 80.2021312,14.083845 C80.4159331,13.8775449 80.7029439,13.764648 81,13.77 L83,13.77 L83,13.78 Z" id="Shape"></path>
                            </g>
                        </g>
                    </g>
                </g>
            </g>
        </g>
    </g>
</svg>