<?xml version="1.0" encoding="UTF-8"?>
<svg width="360px" height="685px" viewBox="0 0 360 685" version="1.1" xmlns="http://www.w3.org/2000/svg" xmlns:xlink="http://www.w3.org/1999/xlink">
    <!-- Generator: Sketch 45.1 (43504) - http://www.bohemiancoding.com/sketch -->
    <title>Group 4</title>
    <desc>Created with Sketch.</desc>
    <defs></defs>
    <g id="Page-2" stroke="none" stroke-width="1" fill="none" fill-rule="evenodd">
        <g id="Artboard" transform="translate(-44.000000, -57.000000)">
            <g id="Group-4" transform="translate(44.000000, 57.000000)">
                <path d="M194.422612,118.679397 C231.119642,118.679397 261.105556,88.6934838 261.105556,51.996454" id="Oval" stroke="#E9EAEF" stroke-width="15" stroke-linejoin="round" transform="translate(227.764084, 85.337926) scale(-1, -1) rotate(89.000000) translate(-227.764084, -85.337926) "></path>
                <path d="M93.5768108,234.259754 C130.273841,234.259754 160.259754,204.273841 160.259754,167.576811" id="Oval" stroke="#E9EAEF" stroke-width="15" stroke-linejoin="round" transform="translate(126.918283, 200.918283) scale(-1, -1) translate(-126.918283, -200.918283) "></path>
                <path d="M200,354.682943 C236.69703,354.682943 266.682943,324.69703 266.682943,288" id="Oval" stroke="#E9EAEF" stroke-width="15" stroke-linejoin="round" transform="translate(233.341472, 321.341472) scale(-1, -1) rotate(-270.000000) translate(-233.341472, -321.341472) "></path>
                <path d="M92,468.682943 C128.69703,468.682943 158.682943,438.69703 158.682943,402" id="Oval" stroke="#E9EAEF" stroke-width="15" stroke-linejoin="round" transform="translate(125.341472, 435.341472) scale(-1, -1) translate(-125.341472, -435.341472) "></path>
                <path d="M192,587.682943 C228.69703,587.682943 258.682943,557.69703 258.682943,521" id="Oval" stroke="#E9EAEF" stroke-width="15" stroke-linejoin="round" transform="translate(225.341472, 554.341472) scale(-1, -1) rotate(-270.000000) translate(-225.341472, -554.341472) "></path>
                <path d="M93,635.682943 C129.69703,635.682943 159.682943,605.69703 159.682943,569" id="Oval" stroke="#E9EAEF" stroke-width="15" stroke-linejoin="round" transform="translate(126.341472, 602.341472) scale(-1, -1) rotate(-90.000000) translate(-126.341472, -602.341472) "></path>
                <g id="Group-3">
                    <rect id="Rectangle-8" fill="#C9FFD1" x="0" y="0" width="200" height="100" rx="5"></rect>
                    <text id="Establish-your-proje" font-family="ArialMT, Arial" font-size="16" font-weight="normal" line-spacing="22" fill="#454547">
                        <tspan x="50.2539062" y="42">Establish your </tspan>
                        <tspan x="55.140625" y="64">project goals</tspan>
                    </text>
                </g>
                <g id="Group-2" transform="translate(0.000000, 234.000000)">
                    <rect id="Rectangle-8" fill="#C9FFD1" x="0" y="0" width="200" height="100" rx="5"></rect>
                    <text id="Work-on-product-conc" font-family="ArialMT, Arial" font-size="16" font-weight="normal" line-spacing="22" fill="#454547">
                        <tspan x="68.3964844" y="42">Work on </tspan>
                        <tspan x="41.2558594" y="64">product concept</tspan>
                    </text>
                </g>
                <g id="Group-2" transform="translate(0.000000, 469.000000)">
                    <rect id="Rectangle-8" fill="#C9FFD1" x="0" y="0" width="200" height="100" rx="5"></rect>
                    <text id="Verify-it" font-family="ArialMT, Arial" font-size="16" font-weight="normal" line-spacing="22" fill="#454547">
                        <tspan x="73.828125" y="55">Verify it</tspan>
                    </text>
                </g>
                <g id="Group" transform="translate(160.000000, 114.000000)">
                    <rect id="Rectangle-8" fill="#DEF5FE" x="0" y="0" width="200" height="100" rx="5"></rect>
                    <text id="Check-if-Fabric-Prin" font-family="ArialMT, Arial" font-size="16" font-weight="normal" line-spacing="22" fill="#454547">
                        <tspan x="46.7421875" y="29">Check if Fabric </tspan>
                        <tspan x="32.953125" y="51">Principles matches</tspan>
                        <tspan x="58.2851562" y="73"> your needs</tspan>
                    </text>
                </g>
                <g id="Group" transform="translate(159.000000, 352.000000)">
                    <rect id="Rectangle-8" fill="#DEF5FE" x="0" y="0" width="200" height="100" rx="5"></rect>
                    <text id="Use-Fabric-elements" font-family="ArialMT, Arial" font-size="16" font-weight="normal" line-spacing="22" fill="#454547">
                        <tspan x="17.8359375" y="40">Use Fabric elements to </tspan>
                        <tspan x="39.1679688" y="62">visualize concept</tspan>
                    </text>
                </g>
                <g id="Group" transform="translate(159.000000, 585.000000)">
                    <rect id="Rectangle-8" fill="#DEF5FE" x="0" y="0" width="200" height="100" rx="5"></rect>
                    <text id="Use-Fabric-Dev-Resou" font-family="ArialMT, Arial" font-size="16" font-weight="normal" line-spacing="22" fill="#454547">
                        <tspan x="44.9648438" y="40">Use Fabric Dev </tspan>
                        <tspan x="23.609375" y="62">Resources to build UI</tspan>
                    </text>
                </g>
                <rect id="Rectangle-10" fill="#E9EAEF" x="27" y="334" width="15" height="136"></rect>
                <text id="ITERATE" transform="translate(34.500000, 403.500000) rotate(-270.000000) translate(-34.500000, -403.500000) " font-family="ArialMT, Arial" font-size="13" font-weight="normal" fill="#454547">
                    <tspan x="7.05273438" y="408">ITERATE</tspan>
                </text>
            </g>
        </g>
    </g>
</svg>